<?xml version="1.0" encoding="utf-8" ?>
<svg xmlns="http://www.w3.org/2000/svg" xmlns:xlink="http://www.w3.org/1999/xlink" width="32" height="32" viewBox="0 0 32 32">
	<defs>
		<clipPath id="clipPath4457713748">
			<path transform="matrix(1 0 0 1 0 0)" d="M0 0L32 0L32 32L0 32L0 0Z" fill-rule="nonzero"/>
		</clipPath>
	</defs>
	<g clip-path="url(#clipPath4457713748)">
		<path transform="matrix(1 0 0 1 2.66667 2.66633)" d="M25.8747 5.44834L13.8747 0.115006C13.7021 0.0383355 13.5215 0 13.3327 0C13.1439 0 12.9632 0.0383355 12.7907 0.115006L0.790667 5.44834C0.764001 5.46034 0.745334 5.48034 0.718667 5.49501C0.681334 5.51367 0.641334 5.52567 0.606667 5.54834C0.577334 5.56834 0.554667 5.59367 0.526667 5.61501C0.477936 5.65122 0.432329 5.69102 0.389847 5.7344C0.347364 5.77777 0.308527 5.8242 0.273334 5.87367C0.246667 5.91101 0.218667 5.94434 0.194667 5.98167C0.174825 6.01691 0.156445 6.05289 0.139529 6.08961C0.122612 6.12634 0.107214 6.16369 0.0933339 6.20167C0.0813338 6.23767 0.0626672 6.27101 0.0520007 6.30701C0.0352576 6.36556 0.0225328 6.42497 0.0138264 6.48525C0.00511996 6.54552 0.000511169 6.60611 0 6.66701L0 20.0003C0 20.5283 0.309333 21.0043 0.792 21.219L12.792 26.5523C12.9653 26.6297 13.1493 26.667 13.3333 26.667C13.4262 26.6646 13.5177 26.6527 13.608 26.6311C13.6984 26.6095 13.7855 26.5788 13.8693 26.539L13.8747 26.5523L25.8747 21.219C26.1156 21.1122 26.3079 20.9482 26.4515 20.7272C26.5952 20.5062 26.6669 20.2639 26.6667 20.0003L26.6667 6.66701C26.6669 6.40343 26.5952 6.16114 26.4515 5.94013C26.3079 5.71913 26.1156 5.5552 25.8747 5.44834ZM13.3333 2.79367L22.0507 6.66701L13.3333 10.5403L11.5893 9.76567L4.61733 6.66701L13.3333 2.79367ZM2.66667 19.135L2.66667 8.71901L12 12.867L12 23.2817L2.66667 19.135ZM14.6667 23.2817L14.6667 12.867L24 8.71901L24 19.135L14.6667 23.2817Z" fill-rule="nonzero" fill="rgb(26, 93, 26)"/>
	</g>
</svg>
