<?xml version="1.0" encoding="utf-8" ?>
<svg xmlns="http://www.w3.org/2000/svg" xmlns:xlink="http://www.w3.org/1999/xlink" width="48" height="32" viewBox="0 0 48 32">
	<defs>
		<clipPath id="clipPath5583060257">
			<path d="M0 0L32 0L32 32L0 32L0 0Z" fill-rule="nonzero" transform="matrix(1 0 0 1 8 0)"/>
		</clipPath>
	</defs>
	<g clip-path="url(#clipPath5583060257)">
		<defs>
			<clipPath id="clipPath0940927307">
				<path d="M0 0L32 0L32 32L0 32L0 0Z" fill-rule="nonzero" transform="matrix(1 0 0 1 8 0)"/>
			</clipPath>
		</defs>
		<g clip-path="url(#clipPath0940927307)">
			<path d="M13.333 0.000210166C12.0205 0.0127102 10.908 0.15646 9.45803 0.63771C9.20178 0.76271 8.94553 0.89396 8.69553 1.02521C8.74553 1.35396 8.89553 1.69834 9.03928 1.94396C8.73303 2.20646 8.43928 2.46896 8.15803 2.74396C7.92678 2.40021 7.74553 2.03146 7.63928 1.65646C6.75178 2.23146 5.90803 2.88146 5.13303 3.61896C5.25178 4.21271 5.70803 4.75709 6.08303 5.12834C5.85178 5.45334 5.63303 5.77834 5.42678 6.10959C4.91303 5.65959 4.48178 5.14084 4.21928 4.56896C3.34991 5.62833 2.53428 6.74709 1.98178 7.76584C2.31241 8.57833 3.16991 9.18459 3.84428 9.54084C3.71928 9.92209 3.61303 10.3033 3.52553 10.6908C2.68178 10.2908 1.88178 9.70959 1.36928 9.02833C0.825533 10.2846 0.450533 11.5721 0.231783 12.8658C0.833658 13.8346 2.14241 14.2971 3.10678 14.4846C3.11303 14.8846 3.13178 15.2846 3.16303 15.6846C2.05116 15.5158 0.834283 15.0846 0.0442832 14.4096C-0.0557169 15.8033 0.0130332 17.1908 0.256783 18.5471C1.20991 19.4033 2.82803 19.5033 3.91928 19.4033C4.04428 19.7846 4.17553 20.1658 4.32553 20.5346C3.16241 20.8158 1.61991 20.6033 0.619283 20.1471C1.03178 21.6283 1.64428 23.0471 2.44428 24.3596C3.65241 24.8971 5.22678 24.5846 6.30178 24.2033C6.53303 24.5346 6.77678 24.8596 7.02678 25.1721C5.91428 25.7658 4.53303 25.8908 3.43178 25.8033C4.20053 26.8221 5.09553 27.7533 6.10178 28.5783C6.40803 28.6471 6.75803 28.6471 7.14553 28.5971C7.87678 28.4908 8.72053 28.1596 9.51428 27.6783C10.558 28.5221 11.6955 29.2221 12.8955 29.7471L13.3643 28.6721C12.3643 28.2408 11.408 27.6596 10.5143 26.9658C11.3455 26.2846 12.033 25.4658 12.4018 24.6846C12.6955 24.0783 12.7955 23.5346 12.683 23.0408C12.0143 22.6846 11.3955 22.2596 10.8393 21.7721C10.3518 23.0721 9.18928 24.0283 8.12053 24.6471C7.87053 24.3408 7.62678 24.0283 7.39553 23.7096C8.44553 23.0971 9.88928 21.9908 9.83928 20.7658C9.28303 20.1221 8.80178 19.4033 8.40803 18.6346C7.65803 19.5096 6.48928 20.0408 5.50178 20.3033C5.35178 19.9408 5.21428 19.5783 5.08928 19.2033C6.13928 18.8783 7.45803 18.3908 7.84553 17.3471C7.57678 16.6283 7.37678 15.8721 7.23928 15.0971C6.37678 15.6221 5.23928 15.7908 4.34428 15.7783C4.30678 15.3908 4.28178 15.0033 4.26928 14.6096C5.23928 14.5721 6.38928 14.4533 7.07678 13.7158C7.02678 12.9283 7.04553 12.1221 7.13303 11.3096C6.29553 11.4846 5.32053 11.3283 4.60678 11.1096C4.68803 10.7346 4.78803 10.3533 4.90678 9.97833C5.70803 10.1783 6.60178 10.3971 7.33303 10.0283C7.50178 9.17833 7.75178 8.32208 8.08303 7.47833C7.46428 7.36583 6.82053 7.08458 6.35178 6.80958C6.55803 6.47833 6.77678 6.15333 7.00803 5.82833C7.51428 6.09083 8.02678 6.37833 8.58303 6.35333C8.93928 5.62833 9.35178 4.93771 9.80178 4.30646C9.48303 4.13771 9.17678 3.90646 8.90178 3.64396C9.17678 3.37521 9.47053 3.11271 9.77053 2.85021C10.008 3.07146 10.2705 3.23646 10.5393 3.36271C11.533 2.20021 12.783 1.09833 13.6018 0.000208735L13.333 0.000210166ZM15.733 0.000210166C16.6955 1.29709 17.8455 2.22709 18.7893 3.35646C19.0768 3.24646 19.358 3.02958 19.558 2.85021C19.8643 3.11271 20.1518 3.37521 20.4268 3.64396C20.1518 3.90646 19.8518 4.13771 19.5268 4.30646C19.983 4.93771 20.3955 5.62209 20.7518 6.34708C21.3143 6.34084 21.9018 6.07208 22.3268 5.82208C22.558 6.14708 22.7768 6.47208 22.9768 6.80333C22.4268 7.17208 21.8393 7.40334 21.2518 7.47208C21.583 8.31583 21.833 9.17208 22.0018 10.0221C22.7705 10.3596 23.708 10.1908 24.4205 9.97208C24.5393 10.3471 24.6393 10.7283 24.7268 11.1033C23.8393 11.3158 23.0205 11.4908 22.2018 11.3096C22.2893 12.1158 22.3018 12.9221 22.2518 13.7158C22.9643 14.4846 24.1393 14.6158 25.058 14.6033C25.0455 14.9971 25.0268 15.3846 24.983 15.7721C23.9143 15.7408 22.933 15.6158 22.0893 15.0908C21.958 15.8658 21.758 16.6221 21.4893 17.3471C22.0018 18.4346 23.2268 18.9283 24.2455 19.1971C24.1205 19.5721 23.983 19.9346 23.833 20.2971C22.6768 19.9471 21.6518 19.4846 20.9205 18.6283C20.5268 19.4033 20.0518 20.1158 19.4893 20.7596C19.583 22.1596 20.8893 23.1221 21.9393 23.7033C21.708 24.0221 21.4643 24.3346 21.2143 24.6408C20.0268 23.9033 18.9268 23.0283 18.4955 21.7658C17.933 22.2533 17.3205 22.6783 16.6455 23.0346C16.533 23.5283 16.6393 24.0721 16.9268 24.6783C17.3018 25.4596 17.9893 26.2783 18.8205 26.9596C17.9268 27.6533 16.9705 28.2346 15.9705 28.6658L16.433 29.7408C17.6393 29.2158 18.7705 28.5158 19.8143 27.6658C20.608 28.1533 21.4518 28.4846 22.1893 28.5908C22.5768 28.6408 22.9268 28.6408 23.233 28.5721C24.2393 27.7471 25.133 26.8158 25.9018 25.7971C24.7768 25.9033 23.533 25.6533 22.3705 25.1908C22.3518 25.1846 22.3268 25.1721 22.3018 25.1658C22.558 24.8533 22.7955 24.5283 23.033 24.1971C24.1705 24.6846 25.7643 24.9283 26.883 24.3533C27.683 23.0408 28.2955 21.6221 28.708 20.1408C28.683 20.1533 28.658 20.1658 28.633 20.1721C27.3518 20.5721 26.1268 20.6471 25.0018 20.5283C25.1518 20.1596 25.283 19.7783 25.408 19.4033C26.6018 19.5096 28.233 19.4096 29.0705 18.5408C29.3143 17.1846 29.3893 15.7971 29.283 14.4033C28.383 15.0721 27.1018 15.5221 26.1643 15.6783C26.1955 15.2783 26.2205 14.8783 26.2268 14.4783C27.2768 14.1783 28.5955 13.8533 29.0955 12.8596C28.8768 11.5658 28.5018 10.2783 27.958 9.02209C27.3705 9.74709 26.5143 10.3346 25.808 10.6783C25.7143 10.2971 25.608 9.91584 25.483 9.53459C26.233 9.07209 27.0518 8.57834 27.3518 7.75959C26.7205 6.59084 25.9643 5.52209 25.108 4.56896C24.8455 5.13459 24.4143 5.65959 23.908 6.10959C23.7018 5.77834 23.483 5.45334 23.2455 5.12834C23.633 4.68021 24.133 4.20896 24.1955 3.61896C23.4205 2.88146 22.583 2.23146 21.6955 1.65646C21.583 2.03146 21.4018 2.40021 21.1768 2.74396C20.8955 2.46896 20.6018 2.20646 20.2955 1.94396C20.4643 1.64271 20.5893 1.34271 20.633 1.02521C20.383 0.893962 20.1268 0.762712 19.8705 0.637712C18.3268 0.125212 17.1643 -0.00603807 15.733 0.000210166Z" fill-rule="nonzero" transform="matrix(1 0 0 1 9.33572 1.12791)" fill="rgb(205, 127, 50)"/>
		</g>
	</g>
</svg>
