<?xml version="1.0" encoding="utf-8" ?>
<svg xmlns="http://www.w3.org/2000/svg" xmlns:xlink="http://www.w3.org/1999/xlink" width="17" height="17" viewBox="0 0 17 17">
	<defs>
		<clipPath id="clipPath6280974257">
			<path transform="matrix(1 0 0 1 0 0)" d="M0 0L17 0L17 17L0 17L0 0Z" fill-rule="nonzero"/>
		</clipPath>
	</defs>
	<g clip-path="url(#clipPath6280974257)">
		<path transform="matrix(1 0 0 1 1.41632 1.41665)" d="M7.08333 13.1667Q8.32165 13.1667 9.45093 12.689Q10.5425 12.2273 11.3849 11.3849Q12.2273 10.5425 12.689 9.45094Q13.1667 8.32165 13.1667 7.08333Q13.1667 5.84501 12.689 4.71573Q12.2273 3.62421 11.3849 2.78177Q10.5425 1.93932 9.45094 1.47765Q8.32165 1 7.08333 1Q5.84502 1 4.71573 1.47765Q3.62421 1.93932 2.78177 2.78177Q1.93932 3.62421 1.47765 4.71573Q1 5.84502 1 7.08333Q1 8.32165 1.47765 9.45093Q1.93932 10.5425 2.78177 11.3849Q3.62421 12.2273 4.71573 12.689Q5.84502 13.1667 7.08333 13.1667L7.08333 13.1667ZM7.08333 15.1667Q5.43945 15.1667 3.93663 14.531Q2.48583 13.9174 1.36755 12.7991Q0.249273 11.6808 -0.364361 10.23Q-1 8.72722 -1 7.08333Q-1 5.43945 -0.364362 3.93663Q0.249272 2.48583 1.36755 1.36755Q2.48583 0.249273 3.93663 -0.364361Q5.43945 -1 7.08333 -1Q8.72722 -1 10.23 -0.364362Q11.6808 0.249272 12.7991 1.36755Q13.9174 2.48583 14.531 3.93663Q15.1667 5.43944 15.1667 7.08333Q15.1667 8.72722 14.531 10.23Q13.9174 11.6808 12.7991 12.7991Q11.6808 13.9174 10.23 14.531Q8.72722 15.1667 7.08333 15.1667L7.08333 15.1667Z" fill-rule="nonzero" fill="rgb(51, 51, 51)"/>
		<path transform="matrix(1 0 0 1 10.9788 2.47915)" d="M0 -1C-0.55228 -1 -1 -0.55228 -1 0L-1 6.02083C-1 6.57311 -0.55228 7.02083 0 7.02083C0.55228 7.02083 1 6.57311 1 6.02083L1 0C1 -0.55228 0.55228 -1 0 -1Z" fill-rule="evenodd" fill="rgb(51, 51, 51)"/>
		<path transform="matrix(1 0 0 1 5.89148 2.35029)" d="M-0.707109 -0.707105C-1.09763 -0.316582 -1.09763 0.316589 -0.707105 0.707109L4.30159 5.71577C4.69211 6.10629 5.32529 6.10629 5.71581 5.71577C6.10633 5.32525 6.10632 4.69207 5.7158 4.30156L0.707104 -0.707109C0.316582 -1.09763 -0.316589 -1.09763 -0.707109 -0.707105Z" fill-rule="evenodd" fill="rgb(51, 51, 51)"/>
		<path transform="matrix(1 0 0 1 2.47882 6.02085)" d="M-1 0C-1 0.55228 -0.55228 1 0 1L6.02083 1C6.57311 1 7.02083 0.55228 7.02083 0C7.02083 -0.55228 6.57311 -1 6.02083 -1L0 -1C-0.55228 -1 -1 -0.55228 -1 0Z" fill-rule="evenodd" fill="rgb(51, 51, 51)"/>
		<path transform="matrix(1 0 0 1 2.20438 6.24611)" d="M4.30158 -0.707109C4.69211 -1.09763 5.32528 -1.09763 5.7158 -0.707105C6.10632 -0.316583 6.10632 0.316589 5.71579 0.707109L0.707105 5.71577C0.316583 6.10629 -0.316589 6.10629 -0.707109 5.71576C-1.09763 5.32524 -1.09763 4.69207 -0.707105 4.30155L4.30158 -0.707109Z" fill-rule="evenodd" fill="rgb(51, 51, 51)"/>
		<path transform="matrix(1 0 0 1 6.02118 8.85415)" d="M0 -1C-0.55228 -1 -1 -0.55228 -1 0L-1 6.02083C-1 6.57311 -0.55228 7.02083 0 7.02083C0.55228 7.02083 1 6.57311 1 6.02083L1 0C1 -0.55228 0.55228 -1 0 -1Z" fill-rule="evenodd" fill="rgb(51, 51, 51)"/>
		<path transform="matrix(1 0 0 1 6.24582 9.78779)" d="M-0.707109 -0.707104C-1.09763 -0.316582 -1.09763 0.31659 -0.707104 0.707109L4.30159 5.71577C4.69211 6.10629 5.32529 6.10629 5.71581 5.71576C6.10633 5.32524 6.10632 4.69207 5.7158 4.30155L0.707104 -0.707109C0.316582 -1.09763 -0.31659 -1.09763 -0.707109 -0.707104Z" fill-rule="evenodd" fill="rgb(51, 51, 51)"/>
		<path transform="matrix(1 0 0 1 8.5 10.9791)" d="M-1 0C-1 0.55228 -0.55228 1 0 1L6.375 1C6.92728 1 7.375 0.55228 7.375 0C7.375 -0.55228 6.92728 -1 6.375 -1L0 -1C-0.55228 -1 -1 -0.55228 -1 0Z" fill-rule="evenodd" fill="rgb(51, 51, 51)"/>
		<path transform="matrix(1 0 0 1 9.9957 5.8919)" d="M5.71581 -0.707104C5.32529 -1.09763 4.69211 -1.09763 4.30159 -0.707109L-0.707104 4.30155C-1.09763 4.69207 -1.09763 5.32524 -0.707109 5.71576C-0.31659 6.10629 0.316582 6.10629 0.707104 5.71577L5.7158 0.707109C6.10632 0.31659 6.10633 -0.316582 5.71581 -0.707104Z" fill-rule="evenodd" fill="rgb(51, 51, 51)"/>
		<path transform="matrix(1 0 0 1 6.02118 6.02085)" d="M2.47917 3.95833Q3.09186 3.95833 3.5251 3.5251Q3.95833 3.09186 3.95833 2.47917Q3.95833 1.86647 3.5251 1.43324Q3.09186 1 2.47917 1Q1.86647 1 1.43324 1.43324Q1 1.86647 1 2.47917Q1 3.09186 1.43324 3.5251Q1.86647 3.95833 2.47917 3.95833ZM2.47917 5.95833Q1.772 5.95833 1.12461 5.68451Q0.500068 5.42035 0.0190235 4.93931Q-0.462021 4.45826 -0.72618 3.83372Q-1 3.18634 -1 2.47917Q-1 1.772 -0.72618 1.12461Q-0.462021 0.500068 0.0190235 0.0190235Q0.500068 -0.462021 1.12461 -0.72618Q1.772 -1 2.47917 -1Q3.18634 -1 3.83372 -0.72618Q4.45826 -0.462021 4.93931 0.0190235Q5.42035 0.500069 5.68451 1.12461Q5.95833 1.77199 5.95833 2.47917Q5.95833 3.18634 5.68451 3.83372Q5.42035 4.45826 4.93931 4.93931Q4.45826 5.42035 3.83372 5.68451Q3.18634 5.95833 2.47917 5.95833Z" fill-rule="nonzero" fill="rgb(51, 51, 51)"/>
	</g>
</svg>
