<?xml version="1.0" encoding="utf-8" ?>
<svg xmlns="http://www.w3.org/2000/svg" xmlns:xlink="http://www.w3.org/1999/xlink" width="32" height="32" viewBox="0 0 32 32">
	<defs>
		<clipPath id="clipPath4510257895">
			<path transform="matrix(1 0 0 1 0 0)" d="M0 0L32 0L32 32L0 32L0 0Z" fill-rule="nonzero"/>
		</clipPath>
	</defs>
	<g clip-path="url(#clipPath4510257895)">
		<defs>
			<clipPath id="clipPath5075094260">
				<path transform="matrix(1 0 0 1 0 0)" d="M0 0L32 0L32 32L0 32L0 0Z" fill-rule="nonzero"/>
			</clipPath>
		</defs>
		<g clip-path="url(#clipPath5075094260)">
			<path transform="matrix(1 0 0 1 2.99965 3.01114)" d="M26.8399 0.135926Q26.7625 -0.219897 26.5078 -0.481556Q26.2484 -0.748043 25.8864 -0.833275Q24.4354 -1.18821 22.2243 -0.795797Q20.177 -0.432444 17.8539 0.497149Q15.494 1.4415 13.3626 2.76679Q11.0685 4.19331 9.44225 5.81836Q8.84486 6.41085 8.29875 7.05581Q7.93561 7.48469 7.59813 7.93347Q5.49731 7.84044 3.93863 8.5204Q1.55134 9.57006 0.19718 12.1995Q-0.648983 13.8426 -0.978226 15.8413Q-1.10252 16.6044 -0.57351 17.1658Q-0.044495 17.7272 0.722871 17.6486L4.74745 17.2068Q4.75467 17.2795 4.76274 17.352Q4.79895 17.7121 4.95951 18.048Q5.12007 18.384 5.3849 18.6457L7.34262 20.6035Q7.60052 20.8644 7.93681 21.0249Q8.27308 21.1855 8.64387 21.2226Q8.70727 21.2297 8.7712 21.2361L8.3307 25.2498Q8.25234 26.0245 8.81285 26.5526Q9.37335 27.0808 10.1336 26.9579Q12.1278 26.6376 13.781 25.788Q16.4138 24.4348 17.4572 22.0482Q18.1333 20.4967 18.0487 18.4026Q18.4999 18.0646 18.931 17.7005Q19.5779 17.1543 20.1747 16.5537Q21.8055 14.932 23.2296 12.6688Q24.5602 10.5542 25.5016 8.21855Q26.4317 5.91095 26.7949 3.85499Q27.1847 1.64857 26.8399 0.135926ZM24.8878 0.571172Q24.886 0.563061 24.8843 0.554901L24.8878 0.571172ZM24.9663 1.03202Q24.0039 0.919617 22.5738 1.17343Q20.729 1.50083 18.5969 2.354Q16.4005 3.23292 14.4187 4.46522Q12.3197 5.77042 10.8559 7.2331Q10.315 7.76962 9.8251 8.3482Q9.3352 8.92678 8.89737 9.54573Q8.82148 9.65302 8.72044 9.73705Q8.6194 9.82109 8.50008 9.87617Q8.38076 9.93125 8.25126 9.95363Q8.12176 9.976 7.99087 9.96416Q6.03632 9.78732 4.73833 10.3536Q3.00499 11.1157 1.97524 13.1152Q1.39408 14.2437 1.10346 15.5949L5.57873 15.1036Q5.67663 15.0928 5.77475 15.1014Q5.87287 15.1099 5.96743 15.1375Q6.06199 15.165 6.14937 15.2105Q6.23674 15.2559 6.31357 15.3176Q6.3904 15.3792 6.45373 15.4546Q6.51706 15.53 6.56445 15.6164Q6.61185 15.7027 6.64149 15.7966Q6.67113 15.8906 6.68188 15.9885Q6.68735 16.0383 6.68781 16.0884Q6.69021 16.3496 6.70588 16.6104Q6.72155 16.8711 6.75046 17.1307Q6.75392 17.1645 6.76402 17.1856Q6.77413 17.2068 6.7908 17.2232L8.75683 19.1892Q8.77739 19.21 8.79856 19.2201Q8.81974 19.2302 8.84308 19.2326Q9.1123 19.2625 9.3714 19.2782Q9.63052 19.2939 9.89008 19.2964Q10.089 19.2983 10.272 19.3762Q10.455 19.4541 10.5943 19.5962Q10.7336 19.7382 10.8079 19.9227Q10.8822 20.1072 10.8803 20.3061Q10.8798 20.3559 10.8744 20.4055L10.3835 24.8778Q11.732 24.5923 12.8668 24.0091Q14.8664 22.9814 15.6247 21.247Q16.1878 19.9548 16.0197 18.0028Q16.0084 17.8722 16.0312 17.7431Q16.054 17.614 16.1093 17.4951Q16.1646 17.3762 16.2487 17.2756Q16.3328 17.175 16.44 17.0995Q17.0606 16.6622 17.6407 16.1724Q18.2208 15.6826 18.756 15.144Q20.2339 13.6743 21.5368 11.6037Q22.7721 9.64048 23.6466 7.47087Q24.4986 5.35715 24.8254 3.50704Q25.084 2.04349 24.9663 1.03202ZM14.9596 11.0504L14.9587 11.0496Q13.8848 9.97534 13.8847 8.4562Q13.8846 6.93647 14.9592 5.86182Q16.0338 4.78717 17.5535 4.78717Q19.0732 4.78717 20.1478 5.86182Q21.2223 6.93647 21.2222 8.4562Q21.2221 9.97594 20.1474 11.0504Q19.0741 12.126 17.5535 12.126Q16.0334 12.126 14.9596 11.0504ZM16.3745 9.63687Q16.8625 10.126 17.5535 10.126Q18.2444 10.126 18.7333 9.63604Q19.2222 9.14731 19.2222 8.45605Q19.2223 7.76479 18.7335 7.27598Q18.2447 6.78717 17.5535 6.78717Q16.8622 6.78717 16.3734 7.27599Q15.8847 7.76479 15.8847 8.45605Q15.8848 9.14731 16.3736 9.63604L16.3745 9.63687Z" fill-rule="evenodd" fill="rgb(26, 93, 26)"/>
			<path transform="matrix(1 0 0 1 4 22)" d="M3.84505 -0.121839C3.77776 -0.670005 3.27883 -1.05984 2.73066 -0.99255Q2.09744 -0.91482 1.52394 -0.635358Q0.950432 -0.355897 0.499007 0.0949045Q-0.426308 1.02337 -0.80036 3.67599Q-0.972119 4.89404 -0.999675 5.9745Q-1.00475 6.17335 -0.933336 6.359Q-0.861926 6.54466 -0.724905 6.68885Q-0.587885 6.83304 -0.406114 6.91382Q-0.224343 6.9946 -0.0254956 6.99967Q-7.66292e-06 7.00033 0.0254803 6.99968Q1.10662 6.97212 2.32497 6.80019Q4.97909 6.42564 5.90418 5.50003Q6.35598 5.05015 6.63633 4.47482Q6.91668 3.8995 6.99289 3.26407C7.05864 2.71572 6.66742 2.21787 6.11907 2.15211C5.57072 2.08636 5.07287 2.47758 5.00711 3.02593Q4.97107 3.32654 4.83844 3.59872Q4.70581 3.87089 4.48957 4.08622Q4.28711 4.28879 3.62751 4.49055Q2.98409 4.68736 2.0455 4.81981Q1.54091 4.89102 1.06517 4.93484Q1.10894 4.4595 1.18005 3.95526Q1.31239 3.01673 1.50904 2.37289Q1.71084 1.71218 1.91224 1.5101Q2.12709 1.29555 2.40003 1.16255Q2.67298 1.02954 2.97434 0.99255C3.5225 0.925261 3.91234 0.426326 3.84505 -0.121839Z" fill-rule="evenodd" fill="rgb(26, 93, 26)"/>
		</g>
	</g>
</svg>
