<?xml version="1.0" encoding="utf-8" ?>
<svg xmlns="http://www.w3.org/2000/svg" xmlns:xlink="http://www.w3.org/1999/xlink" width="48" height="32" viewBox="0 0 48 32">
	<defs>
		<clipPath id="clipPath6661095933">
			<path d="M0 0L32 0L32 32L0 32L0 0Z" fill-rule="nonzero" transform="matrix(1 0 0 1 8 0)"/>
		</clipPath>
	</defs>
	<g clip-path="url(#clipPath6661095933)">
		<defs>
			<clipPath id="clipPath6029116155">
				<path d="M0 0L32 0L32 32L0 32L0 0Z" fill-rule="nonzero" transform="matrix(1 0 0 1 8 0)"/>
			</clipPath>
		</defs>
		<g clip-path="url(#clipPath6029116155)">
			<path d="M7.16396 0C6.06884 0.353125 5.21196 0.740875 4.15615 1.51562C4.01927 1.64669 3.88509 1.77938 3.75365 1.916C3.76865 1.95138 3.79177 1.99506 3.82596 2.05662C3.88946 2.17112 3.9989 2.30806 4.13659 2.4435C3.92071 2.7895 3.72434 3.1355 3.54284 3.4825C3.31384 3.2925 3.10834 3.08106 2.94321 2.84375C2.46715 3.43781 2.03852 4.07362 1.66584 4.74625C1.69052 4.8485 1.76315 4.96 1.90209 5.10938C2.06809 5.28769 2.3274 5.47188 2.62871 5.629C2.50221 6.01131 2.39371 6.39175 2.30459 6.7715C1.83959 6.56025 1.41427 6.286 1.07996 5.93756C0.708711 6.80031 0.425398 7.71381 0.242086 8.66606C0.325523 8.81819 0.474211 8.9575 0.699086 9.10556C1.01609 9.31431 1.47159 9.48531 1.96671 9.58412C1.9639 9.98644 1.98234 10.3855 2.01746 10.7794C1.30452 10.6748 0.617148 10.4514 0.0565234 10.0821C0.0533985 10.08 0.0498984 10.0784 0.0467734 10.0762C-0.0351015 11.0506 -0.00772655 12.0112 0.115086 12.9454C0.259461 13.1629 0.501086 13.3177 0.861148 13.4415C1.32402 13.6006 1.95315 13.6505 2.59365 13.586C2.71865 13.9686 2.86084 14.3441 3.01927 14.711C2.14615 14.8421 1.25446 14.8124 0.482211 14.5469C0.461149 14.5397 0.440648 14.5312 0.419711 14.5235C0.668336 15.4916 1.02346 16.4216 1.47246 17.2989C1.69452 17.4741 1.99434 17.5624 2.39246 17.5899C2.97371 17.6301 3.71396 17.4817 4.41984 17.1934C4.65184 17.522 4.89671 17.8397 5.15421 18.1466C4.24359 18.5662 3.25671 18.8137 2.33777 18.7559C2.95977 19.6686 3.69015 20.5037 4.51552 21.2403C4.78177 21.3307 5.09677 21.3319 5.4764 21.2578C6.0764 21.1408 6.77984 20.7951 7.41577 20.3203L7.41777 20.3203C7.7399 20.5689 8.07252 20.8047 8.4119 21.0234C7.6634 21.6428 6.81034 22.1294 5.94127 22.3497C6.66965 22.8422 7.45052 23.2666 8.27521 23.6113C8.58377 23.6378 8.91834 23.5513 9.29671 23.3672C9.77621 23.1338 10.283 22.7264 10.7361 22.2247C11.8008 22.6486 12.9068 22.9259 14.0213 23.0312L14.1325 21.8672C13.2408 21.7828 12.346 21.5691 11.4724 21.2461C11.9026 20.5518 12.198 19.7978 12.2811 19.1562C12.3548 18.5866 12.2863 18.1464 12.0448 17.8164C11.5398 17.7176 11.0517 17.5701 10.5838 17.3789C10.5731 17.7833 10.4772 18.1906 10.3201 18.5723C10.086 19.1412 9.72509 19.6846 9.28696 20.1798C8.9524 19.9743 8.62665 19.7528 8.3084 19.5157C8.72215 19.0668 9.05359 18.5801 9.24003 18.1269C9.4779 17.5491 9.50084 17.0908 9.27909 16.7013C8.79484 16.3915 8.3414 16.0303 7.92171 15.6251C7.8109 15.8938 7.66003 16.1482 7.48221 16.3809C7.13996 16.8288 6.69646 17.2253 6.19703 17.5625C5.93953 17.2675 5.69378 16.9623 5.46265 16.6445C5.90965 16.3511 6.29365 16.0133 6.55453 15.6719C6.8694 15.2598 7.00578 14.8962 6.95878 14.541C6.64778 14.1314 6.3654 13.6921 6.11503 13.2285C5.97221 13.3964 5.81128 13.5498 5.63646 13.6837C5.21409 14.0071 4.71159 14.2559 4.17359 14.4356C4.0114 14.0799 3.86378 13.7169 3.73609 13.3457C4.20028 13.1954 4.61921 12.9906 4.92546 12.7559C5.28146 12.4833 5.47559 12.2219 5.52121 11.9278C5.33184 11.4279 5.17696 10.9078 5.05834 10.3711C4.94096 10.4382 4.81959 10.4976 4.69509 10.5469C4.22946 10.7311 3.71071 10.824 3.17759 10.8437C3.13621 10.4587 3.1134 10.0686 3.11303 9.67375C3.54784 9.65731 3.95453 9.58394 4.26553 9.46094C4.55303 9.34719 4.74021 9.22344 4.84946 9.07031C4.78584 8.46281 4.76634 7.83969 4.79865 7.207C4.75803 7.2135 4.71803 7.21825 4.67753 7.22262C4.26353 7.26794 3.83028 7.232 3.40215 7.13869C3.48778 6.76494 3.59403 6.38806 3.72053 6.00975C4.0249 6.06806 4.31665 6.08619 4.55053 6.06062C4.7139 6.04275 4.83378 6.01337 4.92553 5.97275C5.01271 5.41462 5.13846 4.87 5.29865 4.34575C5.03728 4.29975 4.7809 4.215 4.53303 4.10356C4.71015 3.7625 4.9034 3.42056 5.11703 3.07825C5.2679 3.13843 5.41178 3.18231 5.53496 3.20137C5.60415 3.212 5.6614 3.21793 5.70884 3.21887C5.83046 2.92887 5.96021 2.64575 6.10146 2.37118C6.47009 1.63356 6.8774 0.855559 7.16396 0ZM22.4374 0C22.7238 0.855375 23.1311 1.63344 23.4999 2.37113C23.6411 2.64569 23.7728 2.92881 23.8943 3.21875C23.9413 3.21775 23.998 3.21169 24.0661 3.20125C24.1899 3.18213 24.3346 3.13875 24.4861 3.07812C24.6998 3.42044 24.893 3.76237 25.0701 4.1035C24.8216 4.21513 24.5641 4.29975 24.3026 4.34575C24.4628 4.87013 24.5885 5.4145 24.6756 5.97263C24.7677 6.01375 24.8883 6.04263 25.0526 6.06063C25.2865 6.08625 25.5783 6.06813 25.8826 6.00981C26.0093 6.38875 26.1134 6.76631 26.1991 7.14075C25.7718 7.23369 25.339 7.268 24.9256 7.22281C24.8846 7.21831 24.8439 7.21375 24.8027 7.20719C24.835 7.83994 24.8175 8.46294 24.7538 9.07044C24.8632 9.22356 25.0504 9.34731 25.3379 9.46106C25.6483 9.58388 26.0543 9.65731 26.4883 9.67394C26.4879 10.0687 26.4651 10.4589 26.4239 10.8439C25.8914 10.8239 25.3734 10.7309 24.9083 10.5471C24.7836 10.4977 24.6625 10.4383 24.545 10.3712C24.4265 10.9071 24.271 11.4268 24.0821 11.9259C24.1268 12.2209 24.3193 12.4829 24.6758 12.756C24.9823 12.9906 25.4011 13.1954 25.8654 13.3458C25.7376 13.717 25.5901 14.0799 25.4279 14.4356C24.8905 14.2559 24.3889 14.0068 23.967 13.6838C23.7917 13.5495 23.6295 13.3968 23.4865 13.2286C23.2358 13.6924 22.954 14.1313 22.6427 14.5411C22.5952 14.8962 22.7321 15.2599 23.0471 15.672C23.3076 16.0131 23.6916 16.3514 24.1388 16.6447C23.9077 16.9625 23.6619 17.2676 23.4044 17.5626C22.905 17.2254 22.4615 16.8289 22.1193 16.381C21.9419 16.1488 21.7921 15.8949 21.6818 15.627C21.2624 16.0319 20.8083 16.3918 20.3243 16.7013C20.1026 17.0908 20.1255 17.5491 20.3634 18.127C20.55 18.5801 20.8814 19.0668 21.2951 19.5158C20.9767 19.7529 20.6493 19.9741 20.3146 20.1798C19.877 19.6846 19.5175 19.1412 19.2834 18.5723C19.1263 18.1906 19.0305 17.7833 19.0196 17.379C18.5511 17.5705 18.0626 17.7176 17.5568 17.8165C17.3148 18.1465 17.2468 18.5868 17.3206 19.1563C17.4035 19.7978 17.7006 20.5519 18.131 21.2462C17.2576 21.5692 16.3627 21.7829 15.4709 21.8673L15.5803 23.0313C16.6953 22.9259 17.8019 22.6491 18.8674 22.2247C19.3205 22.7264 19.8273 23.1338 20.3068 23.3672C20.6853 23.5514 21.0198 23.6378 21.3283 23.6113C22.1533 23.2665 22.9336 22.8424 23.6622 22.3496C22.7937 22.1296 21.9396 21.6438 21.1916 21.0253C21.5317 20.8063 21.8628 20.5694 22.1857 20.3203C22.822 20.7955 23.5267 21.1406 24.1271 21.2578C24.5056 21.3316 24.8202 21.3318 25.0861 21.2421C25.9118 20.5054 26.6436 19.6689 27.2658 18.7559C26.3467 18.8137 25.3579 18.5662 24.4473 18.1465C24.7048 17.8394 24.9515 17.5221 25.1836 17.1934C25.8895 17.4815 26.6297 17.63 27.2111 17.5898C27.6091 17.5623 27.909 17.474 28.1309 17.2988C28.5798 16.4215 28.9351 15.4914 29.1836 14.5234C29.1627 14.5311 29.1422 14.5396 29.1211 14.5468C28.349 14.8123 27.4572 14.842 26.584 14.7109C26.7425 14.344 26.8848 13.9685 27.0098 13.5859C27.6496 13.6501 28.278 13.6003 28.7403 13.4413C29.1006 13.3176 29.3435 13.1629 29.4883 12.9453C29.6111 12.0111 29.6366 11.0504 29.5548 10.0761C29.5521 10.0779 29.5497 10.0802 29.547 10.082C28.9864 10.4513 28.2989 10.6747 27.586 10.7793C27.6212 10.3854 27.6395 9.98631 27.6368 9.58394C28.1318 9.48506 28.5874 9.31413 28.9043 9.10538C29.1288 8.9575 29.2759 8.81763 29.3595 8.66588C29.1761 7.71375 28.8926 6.80013 28.5215 5.93744C28.1873 6.28556 27.7631 6.55994 27.2988 6.77144C27.2096 6.39156 27.1012 6.01113 26.9746 5.62881C27.2749 5.47175 27.5335 5.28731 27.6992 5.10925C27.8375 4.96075 27.9118 4.84988 27.9375 4.748C27.5644 4.07463 27.1366 3.43831 26.66 2.84363C26.4949 3.08088 26.2894 3.29238 26.0605 3.48238C25.879 3.13531 25.6826 2.78925 25.4668 2.44325C25.6048 2.30788 25.7138 2.17075 25.7773 2.05638C25.8109 1.99575 25.8348 1.95288 25.8495 1.91775C25.7179 1.78069 25.5823 1.64688 25.4453 1.51544C24.3895 0.740688 23.5326 0.352939 22.4374 0ZM8.30246 3.80863L9.80834 11.916L20.0643 11.916L21.496 4.13475L17.8749 8.1035L15.0643 3.90438L12.2518 8.10356L8.30246 3.80863ZM10.0251 13.084L10.2478 14.2851L19.6287 14.2851L19.8495 13.0839L10.0251 13.084Z" fill-rule="nonzero" transform="matrix(1 0 0 1 9.24816 4.58594)" fill="rgb(255, 215, 0)"/>
		</g>
	</g>
</svg>
