<?xml version="1.0" encoding="utf-8" ?>
<svg xmlns="http://www.w3.org/2000/svg" xmlns:xlink="http://www.w3.org/1999/xlink" width="26.6667" height="26.6667" viewBox="0 0 26.6667 26.6667">
	<path transform="matrix(1 0 0 1 1.33337 1.33337)" d="M6.66667 0C6.66667 -0.736373 7.26363 -1.33333 8 -1.33333C8.73637 -1.33333 9.33333 -0.736373 9.33333 0L9.33333 1.33333L14.6667 1.33333L14.6667 0C14.6667 -0.736373 15.2636 -1.33333 16 -1.33333C16.7364 -1.33333 17.3333 -0.736373 17.3333 0L17.3333 1.33333L18.6667 1.33333Q20.3235 1.33333 21.4951 2.50491Q22.6667 3.67648 22.6667 5.33333L22.6667 6.66667L24 6.66667C24.7364 6.66667 25.3333 7.26363 25.3333 8C25.3333 8.73637 24.7364 9.33333 24 9.33333L22.6667 9.33333L22.6667 14.6667L24 14.6667C24.7364 14.6667 25.3333 15.2636 25.3333 16C25.3333 16.7364 24.7364 17.3333 24 17.3333L22.6667 17.3333L22.6667 18.6667Q22.6667 20.3235 21.4951 21.4951Q20.3235 22.6667 18.6667 22.6667L17.3333 22.6667L17.3333 24C17.3333 24.7364 16.7364 25.3333 16 25.3333C15.2636 25.3333 14.6667 24.7364 14.6667 24L14.6667 22.6667L9.33333 22.6667L9.33333 24C9.33333 24.7364 8.73637 25.3333 8 25.3333C7.26363 25.3333 6.66667 24.7364 6.66667 24L6.66667 22.6667L5.33333 22.6667Q3.67648 22.6667 2.50491 21.4951Q1.33333 20.3235 1.33333 18.6667L1.33333 17.3333L0 17.3333C-0.736373 17.3333 -1.33333 16.7364 -1.33333 16C-1.33333 15.2636 -0.736373 14.6667 0 14.6667L1.33333 14.6667L1.33333 9.33333L0 9.33333C-0.736373 9.33333 -1.33333 8.73637 -1.33333 8C-1.33333 7.26363 -0.736373 6.66667 0 6.66667L1.33333 6.66667L1.33333 5.33333Q1.33333 3.67648 2.50491 2.50491Q3.67648 1.33333 5.33333 1.33333L6.66667 1.33333L6.66667 0ZM4 8L4 18.6667Q4 19.2189 4.39052 19.6095Q4.78105 20 5.33333 20L18.6667 20Q19.219 20 19.6095 19.6095Q20 19.2189 20 18.6667L20 5.33333Q20 4.78105 19.6095 4.39052Q19.219 4 18.6667 4L5.33333 4Q4.78105 4 4.39053 4.39052Q4 4.78105 4 5.33333L4 8ZM6.66667 16L6.66667 8Q6.66667 7.9345 6.67309 7.86931Q6.67951 7.80412 6.69229 7.73988Q6.70506 7.67564 6.72408 7.61295Q6.74309 7.55027 6.76816 7.48976Q6.79323 7.42924 6.8241 7.37147Q6.85498 7.3137 6.89137 7.25924Q6.92776 7.20478 6.96932 7.15414Q7.01087 7.10351 7.05719 7.05719Q7.10351 7.01087 7.15414 6.96932Q7.20478 6.92776 7.25924 6.89137Q7.3137 6.85498 7.37147 6.8241Q7.42924 6.79323 7.48975 6.76816Q7.55027 6.74309 7.61295 6.72408Q7.67564 6.70507 7.73988 6.69229Q7.80412 6.67951 7.86931 6.67309Q7.9345 6.66667 8 6.66667L16 6.66667Q16.0655 6.66667 16.1307 6.67309Q16.1959 6.67951 16.2601 6.69229Q16.3244 6.70507 16.387 6.72408Q16.4497 6.74309 16.5102 6.76816Q16.5708 6.79323 16.6285 6.8241Q16.6863 6.85498 16.7408 6.89137Q16.7952 6.92776 16.8459 6.96932Q16.8965 7.01087 16.9428 7.05719Q16.9891 7.10351 17.0307 7.15414Q17.0722 7.20478 17.1086 7.25924Q17.145 7.3137 17.1759 7.37147Q17.2068 7.42924 17.2318 7.48975Q17.2569 7.55027 17.2759 7.61295Q17.2949 7.67564 17.3077 7.73988Q17.3205 7.80412 17.3269 7.86931Q17.3333 7.9345 17.3333 8L17.3333 16Q17.3333 16.0655 17.3269 16.1307Q17.3205 16.1959 17.3077 16.2601Q17.2949 16.3244 17.2759 16.387Q17.2569 16.4497 17.2318 16.5102Q17.2068 16.5708 17.1759 16.6285Q17.145 16.6863 17.1086 16.7408Q17.0722 16.7952 17.0307 16.8459Q16.9891 16.8965 16.9428 16.9428Q16.8965 16.9891 16.8459 17.0307Q16.7952 17.0722 16.7408 17.1086Q16.6863 17.145 16.6285 17.1759Q16.5708 17.2068 16.5102 17.2318Q16.4497 17.2569 16.387 17.2759Q16.3244 17.2949 16.2601 17.3077Q16.1959 17.3205 16.1307 17.3269Q16.0655 17.3333 16 17.3333L8 17.3333Q7.9345 17.3333 7.86931 17.3269Q7.80412 17.3205 7.73988 17.3077Q7.67564 17.2949 7.61295 17.2759Q7.55027 17.2569 7.48976 17.2318Q7.42924 17.2068 7.37147 17.1759Q7.3137 17.145 7.25924 17.1086Q7.20478 17.0722 7.15414 17.0307Q7.10351 16.9891 7.05719 16.9428Q7.01087 16.8965 6.96932 16.8459Q6.92776 16.7952 6.89137 16.7408Q6.85498 16.6863 6.8241 16.6285Q6.79323 16.5708 6.76816 16.5102Q6.74309 16.4497 6.72408 16.387Q6.70506 16.3244 6.69229 16.2601Q6.67951 16.1959 6.67309 16.1307Q6.66667 16.0655 6.66667 16ZM9.33333 9.33333L9.33333 14.6667L14.6667 14.6667L14.6667 9.33333L9.33333 9.33333Z" fill-rule="evenodd" fill="rgb(26, 93, 26)"/>
</svg>
