<?xml version="1.0" encoding="utf-8" ?>
<svg xmlns="http://www.w3.org/2000/svg" xmlns:xlink="http://www.w3.org/1999/xlink" width="26.6665" height="26.6667" viewBox="0 0 26.6665 26.6667">
	<path transform="matrix(1 0 0 1 1.33325 1.33337)" d="M12 -1.33333C11.2636 -1.33333 10.6667 -0.736373 10.6667 0L10.6667 1.33333C10.6667 2.06971 11.2636 2.66667 12 2.66667C12.7364 2.66667 13.3333 2.06971 13.3333 1.33333L13.3333 0C13.3333 -0.736373 12.7364 -1.33333 12 -1.33333ZM2.57186 2.57186C2.05116 3.09255 2.05116 3.93678 2.57186 4.45748L3.51452 5.40014C4.03522 5.92084 4.87945 5.92084 5.40014 5.40014C5.92084 4.87945 5.92084 4.03522 5.40014 3.51452L4.45748 2.57186C3.93678 2.05116 3.09255 2.05116 2.57186 2.57186ZM19.5425 2.57186C20.0632 2.05116 20.9074 2.05116 21.4281 2.57186C21.9488 3.09255 21.9488 3.93678 21.4281 4.45748L20.4855 5.40014C19.9648 5.92084 19.1206 5.92084 18.5999 5.40014C18.0792 4.87945 18.0792 4.03522 18.5999 3.51452L19.5425 2.57186ZM6.3424 17.6574Q3.99971 15.314 4 12.0005Q4.00029 8.68704 6.3434 6.34414Q8.6865 4.00124 12 4.00124Q15.3135 4.00124 17.6566 6.34414Q19.9997 8.68704 20 12.0005Q20.0003 15.314 17.6576 17.6574L16.9259 18.3877Q16.5496 18.764 16.3192 19.239Q16.3162 19.2453 16.3132 19.2515Q16.275 19.3312 16.2408 19.4138Q15.9999 19.9955 16 20.6252L16 21.3333Q16 22.9902 14.8284 24.1618Q13.6569 25.3333 12 25.3333Q10.3431 25.3333 9.17157 24.1618Q8 22.9902 8 21.3333L8 20.6253Q8 19.9957 7.75881 19.4134Q7.73181 19.3482 7.70225 19.2847C7.68865 19.2587 7.67587 19.2323 7.66396 19.2053Q7.43656 18.7502 7.07319 18.3868L6.3424 17.6574ZM10.6337 20Q10.6667 20.3094 10.6667 20.6253L10.6667 21.3333Q10.6667 21.8856 11.0572 22.2761Q11.4477 22.6667 12 22.6667Q12.5523 22.6667 12.9428 22.2761Q13.3333 21.8856 13.3333 21.3333L13.3333 20.6255Q13.3333 20.3095 13.3662 20L10.6337 20ZM14.3497 17.3333L9.65036 17.3333Q9.34663 16.889 8.95881 16.5012L8.22728 15.771Q6.66647 14.2091 6.66667 12.0008Q6.66686 9.79177 8.22893 8.22984Q9.791 6.66791 12 6.66791Q14.209 6.66791 15.7711 8.22984Q17.3331 9.79177 17.3333 12.0008Q17.3335 14.2098 15.7717 15.772L15.0421 16.5003Q14.6536 16.8888 14.3497 17.3333ZM-1.33333 12C-1.33333 12.7364 -0.736373 13.3333 0 13.3333L1.33333 13.3333C2.06971 13.3333 2.66667 12.7364 2.66667 12C2.66667 11.2636 2.06971 10.6667 1.33333 10.6667L0 10.6667C-0.736373 10.6667 -1.33333 11.2636 -1.33333 12ZM21.3333 12C21.3333 12.7364 21.9303 13.3333 22.6667 13.3333L24 13.3333C24.7364 13.3333 25.3333 12.7364 25.3333 12C25.3333 11.2636 24.7364 10.6667 24 10.6667L22.6667 10.6667C21.9303 10.6667 21.3333 11.2636 21.3333 12Z" fill-rule="evenodd" fill="rgb(26, 93, 26)"/>
</svg>
