<?xml version="1.0" encoding="utf-8" ?>
<svg xmlns="http://www.w3.org/2000/svg" xmlns:xlink="http://www.w3.org/1999/xlink" width="24" height="26.6666" viewBox="0 0 24 26.6666">
	<path transform="matrix(1 0 0 1 1.33333 1.33337)" d="M-1.33333 18.6667L-1.33333 5.33333Q-1.33333 5.24092 -1.32059 5.1494Q-1.30784 5.05787 -1.28258 4.96898Q-1.25733 4.88008 -1.22006 4.79553Q-1.18278 4.71097 -1.1342 4.63236Q-1.08562 4.55375 -1.02666 4.48259Q-0.967693 4.41144 -0.899479 4.3491Q-0.831264 4.28676 -0.755101 4.23443Q-0.678939 4.18209 -0.596285 4.14076L10.0704 -1.19257Q10.2092 -1.262 10.3603 -1.29767Q10.5114 -1.33333 10.6667 -1.33333Q10.8219 -1.33333 10.973 -1.29767Q11.1241 -1.262 11.263 -1.19257L21.9296 4.14076Q22.0123 4.18209 22.0884 4.23442Q22.1646 4.28676 22.2328 4.3491Q22.301 4.41144 22.36 4.48259Q22.419 4.55375 22.4675 4.63236Q22.5161 4.71097 22.5534 4.79553Q22.5907 4.88008 22.6159 4.96898Q22.6412 5.05787 22.6539 5.1494Q22.6667 5.24092 22.6667 5.33333L22.6667 18.6667Q22.6667 18.7591 22.6539 18.8506Q22.6412 18.9421 22.6159 19.031Q22.5907 19.1199 22.5534 19.2045Q22.5161 19.289 22.4675 19.3676Q22.419 19.4463 22.36 19.5174Q22.301 19.5886 22.2328 19.6509Q22.1646 19.7132 22.0884 19.7656Q22.0123 19.8179 21.9296 19.8592L11.263 25.1926Q11.1241 25.262 10.973 25.2977Q10.8219 25.3333 10.6667 25.3333Q10.5114 25.3333 10.3603 25.2977Q10.2092 25.262 10.0704 25.1926L-0.596285 19.8592L0 18.6667L-1.33333 18.6667ZM10.6667 9.17595L2.98142 5.33333L10.6667 1.49071L18.3519 5.33333L10.6667 9.17595ZM9.33333 11.4907L1.33333 7.49071L1.33333 17.8426L9.33333 21.8426L9.33333 11.4907ZM12 11.4907L20 7.49071L20 17.8426L12 21.8426L12 11.4907Z" fill-rule="evenodd" fill="rgb(26, 93, 26)"/>
</svg>
