<?xml version="1.0" encoding="utf-8" ?>
<svg xmlns="http://www.w3.org/2000/svg" xmlns:xlink="http://www.w3.org/1999/xlink" width="48" height="32" viewBox="0 0 48 32">
	<defs>
		<clipPath id="clipPath5156524715">
			<path d="M0 0L32 0L32 32L0 32L0 0Z" fill-rule="nonzero" transform="matrix(1 0 0 1 8 0)"/>
		</clipPath>
	</defs>
	<g clip-path="url(#clipPath5156524715)">
		<defs>
			<clipPath id="clipPath0559891879">
				<path d="M0 0L32 0L32 32L0 32L0 0Z" fill-rule="nonzero" transform="matrix(1 0 0 1 8 0)"/>
			</clipPath>
		</defs>
		<g clip-path="url(#clipPath0559891879)">
			<path d="M7.19866 0C7.28678 3.72038 8.22247 7.43969 9.39397 10.4856C10.6246 13.6851 12.1493 16.1724 13.0168 17.0398L13.1816 17.2046L13.1816 18.875L16.0566 18.875L16.0566 17.2046L16.2214 17.0398C17.0888 16.1723 18.6136 13.6851 19.8442 10.4856C21.0157 7.43969 21.9514 3.72038 22.0395 9.53674e-07L7.19866 0ZM4.03585 4.26844C2.91272 4.64656 2.01735 5.40681 1.68428 6.16638C1.49585 6.59606 1.46678 7.00638 1.62253 7.42444C1.64035 7.47231 1.66128 7.52069 1.68478 7.56931C1.77127 7.51557 1.85882 7.46363 1.94745 7.41348C2.03607 7.36333 2.12568 7.31503 2.21628 7.26856L2.6086 7.06763L2.89741 7.4005C3.21847 7.7705 3.49803 8.17362 3.73628 8.59581C3.8971 8.40456 4.06172 8.10431 4.17691 7.7185C4.4576 6.77888 4.44703 5.40913 4.03585 4.26844ZM25.2023 4.26844C24.7911 5.40906 24.7806 6.77888 25.0612 7.7185C25.1765 8.10431 25.3411 8.40456 25.5019 8.59581C25.7402 8.17356 26.0197 7.7705 26.3408 7.4005L26.6296 7.06763L27.0219 7.26856C27.1125 7.31503 27.2021 7.36333 27.2907 7.41348C27.3794 7.46363 27.4669 7.51557 27.5534 7.56931C27.5768 7.52062 27.5978 7.47231 27.6157 7.42444C27.7714 7.00638 27.7423 6.59606 27.5539 6.16638C27.2208 5.40681 26.3255 4.64656 25.2023 4.26844ZM2.32891 8.50219C1.06322 9.28256 0.196345 10.4694 0.0322829 11.5005C-0.0581546 12.0693 0.037908 12.577 0.36497 13.0346C0.46872 13.1798 0.598908 13.3217 0.75897 13.4571C0.865313 13.2917 0.978166 13.1308 1.09753 12.9746C1.21689 12.8183 1.34237 12.6671 1.47397 12.521L1.76897 12.1935L2.15753 12.4016C2.65191 12.6664 3.11141 12.9906 3.52878 13.3549C3.5896 13.1278 3.62997 12.8616 3.6396 12.5664C3.67935 11.3515 3.21697 9.72037 2.32891 8.50219ZM26.9093 8.50219C26.0212 9.72031 25.5588 11.3516 25.5986 12.5664C25.6082 12.8616 25.6486 13.1278 25.7094 13.3549C26.1268 12.9906 26.5863 12.6664 27.0807 12.4016L27.4692 12.1935L27.7642 12.521C27.8958 12.6671 28.0213 12.8183 28.1407 12.9745C28.26 13.1308 28.3729 13.2916 28.4792 13.457C28.6392 13.3217 28.7694 13.1798 28.8732 13.0345C29.2003 12.577 29.2963 12.0693 29.2059 11.5005C29.0418 10.4694 28.175 9.28256 26.9093 8.50219ZM2.0191 13.6333C1.11947 14.8087 0.738096 16.2216 0.956346 17.2426C1.07685 17.8059 1.34997 18.2474 1.8216 18.5599C2.1306 18.7647 2.5391 18.9162 3.06785 18.9752C3.12687 18.7837 3.19342 18.5948 3.2675 18.4085C3.34159 18.2223 3.42298 18.0393 3.51166 17.8595L3.70697 17.4634L4.13822 17.5593C4.39416 17.6162 4.64653 17.6872 4.8941 17.7704C4.87078 17.5305 4.81228 17.2588 4.71128 16.9691C4.31028 15.8194 3.28947 14.4576 2.0191 13.6333ZM27.2191 13.6333C25.9487 14.4576 24.9278 15.8194 24.5269 16.9691C24.4259 17.2588 24.3674 17.5305 24.3441 17.7704C24.4681 17.7286 24.5932 17.6901 24.7192 17.6549C24.8453 17.6197 24.9722 17.5878 25.0999 17.5593L25.5312 17.4634L25.7265 17.8595C25.8152 18.0393 25.8966 18.2223 25.9707 18.4085C26.0448 18.5948 26.1113 18.7837 26.1703 18.9752C26.6991 18.9162 27.1076 18.7646 27.4166 18.5599C27.8882 18.2474 28.1613 17.8059 28.2818 17.2426C28.5001 16.2216 28.1187 14.8087 27.2191 13.6333ZM4.33785 18.7829C3.75753 20.2292 3.77366 21.7736 4.29353 22.7542C4.57916 23.2929 4.98766 23.6671 5.56028 23.8518C5.84691 23.9443 6.1826 23.9887 6.57185 23.9645C6.43841 23.2673 6.39866 22.5289 6.4621 21.7809L6.49972 21.3388L6.93847 21.2722C7.07785 21.2512 7.21768 21.2339 7.35796 21.2202C7.49824 21.2065 7.63879 21.1965 7.7796 21.1902C7.81422 21.1886 7.84878 21.1877 7.88335 21.1865C7.10716 20.2005 5.76566 19.2221 4.33785 18.7829ZM24.9003 18.7829C23.4725 19.2221 22.131 20.2004 21.3548 21.1865C21.3894 21.1877 21.424 21.1886 21.4585 21.1902C21.7398 21.2031 22.0207 21.23 22.2998 21.2722L22.7385 21.3388L22.776 21.7809C22.8395 22.5288 22.7998 23.2673 22.6663 23.9645C23.0556 23.9886 23.3913 23.9443 23.6779 23.8518C24.2505 23.6671 24.6591 23.2929 24.9447 22.7541C25.4645 21.7735 25.4807 20.2291 24.9003 18.7829ZM11.1022 20C10.9807 20.4614 10.7243 20.8777 10.3918 21.2102C10.3572 21.2445 10.3217 21.278 10.2854 21.3106C10.2491 21.3432 10.2119 21.3748 10.174 21.4055C11.0993 21.6114 11.9652 21.9487 12.6993 22.3717C12.8483 22.0368 13.0353 21.7252 13.2873 21.4634C13.6166 21.1214 14.0885 20.875 14.6191 20.875C15.1498 20.875 15.6217 21.1214 15.9509 21.4634C16.2029 21.7253 16.3899 22.0368 16.5389 22.3717C17.2773 21.9462 18.1493 21.6073 19.0808 21.4017C19.04 21.3682 19.0001 21.3337 18.9611 21.2981C18.9222 21.2625 18.8841 21.226 18.8471 21.1884C18.5204 20.8551 18.2677 20.4476 18.1433 20L11.1022 20ZM14.6191 22C14.4045 22 14.2669 22.0678 14.0978 22.2434C13.9288 22.4191 13.7607 22.7134 13.6274 23.0746C13.3608 23.7968 13.231 24.7621 13.1802 25.4774C13.1133 26.4176 13.3677 27.5629 13.948 27.9812C14.2438 28.1944 14.9944 28.1944 15.2902 27.9812C15.8705 27.5629 16.1249 26.4176 16.058 25.4774C16.0072 24.7621 15.8773 23.7968 15.6108 23.0746C15.4775 22.7135 15.3093 22.4191 15.1403 22.2434C14.9713 22.0678 14.8337 22 14.6191 22ZM8.14903 22.3112C8.04191 22.3107 7.93503 22.3126 7.8286 22.3168C7.74078 22.3202 7.65547 22.3344 7.56835 22.3412C7.54222 24.0798 8.18185 25.6876 9.13047 26.5064C9.64697 26.9523 10.2296 27.1797 10.9023 27.1413C11.2716 27.1201 11.677 27.0144 12.1132 26.7963C12.0338 26.3172 12.0272 25.8325 12.058 25.3976C12.0975 24.8419 12.1738 24.1499 12.338 23.4678C11.2655 22.7999 9.68635 22.3181 8.14903 22.3112ZM21.0892 22.3112C19.5518 22.3181 17.9727 22.7999 16.9002 23.4678C17.0644 24.1499 17.1407 24.8419 17.1802 25.3976C17.211 25.8324 17.2043 26.3172 17.125 26.7963C17.5612 27.0144 17.9666 27.1201 18.3359 27.1413C19.0086 27.1797 19.5912 26.9523 20.1078 26.5065C21.0563 25.6876 21.696 24.0798 21.6698 22.3412C21.5828 22.3344 21.4973 22.3203 21.4096 22.3168C21.3562 22.3147 21.3028 22.3132 21.2494 22.3122C21.196 22.3113 21.1426 22.3109 21.0892 22.3112Z" fill-rule="nonzero" transform="matrix(1 0 0 1 9.3809 2.5625)" fill="rgb(192, 192, 192)"/>
		</g>
	</g>
</svg>
