<?xml version="1.0" encoding="utf-8" ?>
<svg xmlns="http://www.w3.org/2000/svg" xmlns:xlink="http://www.w3.org/1999/xlink" width="32" height="32" viewBox="0 0 32 32">
	<defs>
		<clipPath id="clipPath4854223459">
			<path transform="matrix(1 0 0 1 0 0)" d="M0 0L32 0L32 32L0 32L0 0Z" fill-rule="nonzero"/>
		</clipPath>
	</defs>
	<g clip-path="url(#clipPath4854223459)">
		<path transform="matrix(1 0 0 1 21.3333 16)" d="M0 0L2.66667 0L2.66667 5.33333L0 5.33333L0 0Z" fill-rule="nonzero" fill="rgb(26, 93, 26)"/>
		<path transform="matrix(1 0 0 1 2.66667 4)" d="M24 5.33333L24 2.66667C24 1.196 22.804 0 21.3333 0L4 0C1.79467 0 0 1.79467 0 4L0 20C0 22.9347 2.392 24 4 24L24 24C25.4707 24 26.6667 22.804 26.6667 21.3333L26.6667 8C26.6667 6.52933 25.4707 5.33333 24 5.33333ZM4 2.66667L21.3333 2.66667L21.3333 5.33333L4 5.33333C3.6434 5.31738 3.34174 5.18041 3.09503 4.92242C2.84833 4.66444 2.72498 4.35696 2.72498 4C2.72498 3.64304 2.84833 3.33556 3.09503 3.07758C3.34174 2.81959 3.6434 2.68262 4 2.66667ZM24 21.3333L4.016 21.3333C3.4 21.3173 2.66667 21.0733 2.66667 20L2.66667 7.75333C3.08533 7.904 3.52933 8 4 8L24 8L24 21.3333Z" fill-rule="nonzero" fill="rgb(26, 93, 26)"/>
	</g>
</svg>
